<?xml version="1.0" encoding="utf-8"?>
<!-- Generator: Adobe Illustrator 16.0.4, SVG Export Plug-In . SVG Version: 6.00 Build 0)  -->
<!DOCTYPE svg PUBLIC "-//W3C//DTD SVG 1.1//EN" "http://www.w3.org/Graphics/SVG/1.1/DTD/svg11.dtd">
<svg version="1.1" id="Layer_1" xmlns="http://www.w3.org/2000/svg" xmlns:xlink="http://www.w3.org/1999/xlink" x="0px" y="0px"
	 width="520px" height="99px" viewBox="0 0 520 99" enable-background="new 0 0 520 99" xml:space="preserve">
<polygon fill="#FFFFFF" stroke="#383E47" stroke-width="2" stroke-linecap="round" stroke-linejoin="round" stroke-miterlimit="10" points="
	912,137 899.25,137 897.001,137 887,137 887,112 912,112 912,123.335 912,124.5 "/>
<rect x="1024" y="-25" fill="#FFFFFF" stroke="#383E47" stroke-width="2" stroke-linecap="round" stroke-linejoin="round" stroke-miterlimit="10" width="25" height="25"/>
<rect x="1103" y="-68" fill="#FFFFFF" stroke="#383E47" stroke-width="2" stroke-linecap="round" stroke-linejoin="round" stroke-miterlimit="10" width="25" height="25"/>
<rect x="978" y="-65" fill="#FFFFFF" stroke="#383E47" stroke-width="2" stroke-linecap="round" stroke-linejoin="round" stroke-miterlimit="10" width="25" height="25"/>
<rect x="895" y="-65" fill="#FFFFFF" stroke="#383E47" stroke-width="2" stroke-linecap="round" stroke-linejoin="round" stroke-miterlimit="10" width="25" height="25"/>
<polygon fill="#FFFFFF" stroke="#383E47" stroke-width="2" stroke-linecap="round" stroke-linejoin="round" stroke-miterlimit="10" points="
	995,137 970,137 970,112 982,112 995,112 "/>
<polygon fill="#FFFFFF" stroke="#383E47" stroke-width="2" stroke-linecap="round" stroke-linejoin="round" stroke-miterlimit="10" points="
	803.178,137 815.695,111.854 829.215,137 "/>
<polygon fill="#FFFFFF" stroke="#383E47" stroke-width="2" stroke-linecap="round" stroke-linejoin="round" stroke-miterlimit="10" points="
	844.778,137 857.296,111.854 870.814,137 "/>
<polygon fill="#FFFFFF" stroke="#383E47" stroke-width="2" stroke-linecap="round" stroke-linejoin="round" stroke-miterlimit="10" points="
	927.979,112 940.496,137.146 954.014,112 "/>
<polygon fill="#FFFFFF" stroke="#383E47" stroke-width="2" stroke-linecap="round" stroke-linejoin="round" stroke-miterlimit="10" points="
	1059.979,-68 1072.496,-42.854 1086.014,-68 "/>
<polygon fill="#FFFFFF" stroke="#383E47" stroke-width="2" stroke-linecap="round" stroke-linejoin="round" stroke-miterlimit="10" points="
	935.979,-65 948.496,-39.854 962.014,-65 "/>
<polygon fill="#FFFFFF" stroke="#383E47" stroke-width="2" stroke-linecap="round" stroke-linejoin="round" stroke-miterlimit="10" points="
	1011.178,137 1023.695,111.854 1037.215,137 "/>
<circle fill="#0C0C0C" cx="815.765" cy="105.432" r="2.432"/>
<circle fill="#0C0C0C" cx="893.765" cy="119.432" r="2.432"/>
<circle fill="#0C0C0C" cx="990.765" cy="-52.568" r="2.432"/>
<line fill="#FFFFFF" stroke="#383E47" stroke-width="2" stroke-linecap="round" stroke-linejoin="round" stroke-miterlimit="10" x1="970" y1="112" x2="995" y2="137"/>
<line fill="#FFFFFF" stroke="#383E47" stroke-width="2" stroke-linecap="round" stroke-linejoin="round" stroke-miterlimit="10" x1="1128" y1="-68" x2="1103" y2="-43"/>
<line fill="none" stroke="#383E47" stroke-width="2" stroke-linecap="round" stroke-linejoin="round" stroke-miterlimit="10" x1="942" y1="-55" x2="956" y2="-55"/>
<line fill="none" stroke="#383E47" stroke-width="2" stroke-linecap="round" stroke-linejoin="round" stroke-miterlimit="10" x1="851" y1="126" x2="865" y2="126"/>
<line fill="none" stroke="#383E47" stroke-width="2" stroke-linecap="round" stroke-linejoin="round" stroke-miterlimit="10" x1="1017" y1="126" x2="1031" y2="126"/>
<line fill="none" stroke="#383E47" stroke-width="2" stroke-linecap="round" stroke-linejoin="round" stroke-miterlimit="10" x1="1065" y1="-58" x2="1079" y2="-58"/>
<line fill="none" stroke="#383E47" stroke-width="2" stroke-linecap="round" stroke-linejoin="round" stroke-miterlimit="10" x1="1044" y1="-66" x2="1019" y2="-53.5"/>
<line fill="none" stroke="#383E47" stroke-width="2" stroke-linecap="round" stroke-linejoin="round" stroke-miterlimit="10" x1="1019" y1="-53.5" x2="1044" y2="-41"/>
<line fill="none" stroke="#383E47" stroke-width="2" stroke-linecap="round" stroke-linejoin="round" stroke-miterlimit="10" x1="895" y1="-65" x2="920" y2="-52.5"/>
<line fill="none" stroke="#383E47" stroke-width="2" stroke-linecap="round" stroke-linejoin="round" stroke-miterlimit="10" x1="920" y1="-52.5" x2="895" y2="-40"/>
<path fill="#070707" stroke="#383E47" stroke-width="0.25" stroke-miterlimit="10" d="M806.988,150.176v7.664h1.921v1.12h-5.152
	v-1.12h1.921v-7.664h-1.921v-1.12h5.152v1.12H806.988z"/>
<path fill="#070707" stroke="#383E47" stroke-width="0.25" stroke-miterlimit="10" d="M827.549,158.96l-0.592-2.592h-3.809
	l-0.576,2.592h-1.344c0.182-0.704,0.385-1.466,0.608-2.288c0.224-0.821,0.466-1.664,0.728-2.528c0.262-0.864,0.537-1.73,0.824-2.6
	c0.288-0.869,0.592-1.698,0.912-2.488h1.633c0.309,0.79,0.604,1.619,0.887,2.488c0.283,0.87,0.55,1.736,0.801,2.6
	c0.25,0.864,0.488,1.707,0.712,2.528c0.224,0.822,0.427,1.584,0.608,2.288H827.549z M825.068,150.208
	c-0.245,0.672-0.512,1.451-0.799,2.336c-0.289,0.886-0.561,1.797-0.816,2.736h3.199c-0.245-0.96-0.509-1.885-0.791-2.776
	C825.578,151.613,825.314,150.848,825.068,150.208z"/>
<path fill="#070707" stroke="#383E47" stroke-width="0.25" stroke-miterlimit="10" d="M846.554,152.08
	c0,0.608-0.16,1.144-0.479,1.608c-0.32,0.464-0.752,0.824-1.296,1.08c0.159,0.256,0.338,0.547,0.535,0.872s0.397,0.672,0.601,1.04
	c0.202,0.368,0.402,0.747,0.6,1.136c0.197,0.39,0.382,0.771,0.553,1.144h-1.408c-0.32-0.768-0.67-1.504-1.048-2.208
	c-0.379-0.704-0.744-1.274-1.097-1.712c-0.063,0.011-0.157,0.016-0.279,0.016c-0.123,0-0.206,0-0.248,0h-1.12v3.904h-1.328v-9.76
	c0.16-0.043,0.344-0.08,0.552-0.112c0.208-0.032,0.421-0.056,0.64-0.072c0.219-0.016,0.435-0.029,0.648-0.04
	c0.213-0.011,0.405-0.016,0.576-0.016c1.194,0,2.093,0.262,2.696,0.784C846.253,150.267,846.554,151.045,846.554,152.08z
	 M843.066,150.096c-0.246,0-0.483,0.002-0.713,0.008s-0.392,0.019-0.487,0.04v3.824h0.848c0.384,0,0.729-0.026,1.032-0.08
	c0.304-0.054,0.565-0.152,0.784-0.296c0.218-0.144,0.386-0.341,0.504-0.592c0.117-0.25,0.176-0.579,0.176-0.984
	c0-0.384-0.059-0.699-0.176-0.944c-0.118-0.245-0.272-0.44-0.464-0.584c-0.192-0.144-0.419-0.245-0.681-0.304
	C843.629,150.125,843.354,150.096,843.066,150.096z"/>
<path fill="#070707" stroke="#383E47" stroke-width="0.25" stroke-miterlimit="10" d="M861.939,158.96v-3.68
	c-0.65-1.066-1.24-2.106-1.768-3.12c-0.528-1.014-0.99-2.048-1.385-3.104h1.473c0.309,0.896,0.664,1.752,1.064,2.568
	c0.399,0.816,0.828,1.656,1.287,2.52c0.49-0.907,0.926-1.768,1.305-2.584c0.378-0.816,0.723-1.65,1.031-2.504h1.44
	c-0.405,1.045-0.87,2.064-1.392,3.056c-0.523,0.992-1.104,2.038-1.744,3.136v3.712H861.939z"/>
<path fill="#070707" stroke="#383E47" stroke-width="0.25" stroke-miterlimit="10" d="M883.117,158.96
	c-0.363-0.885-0.705-1.688-1.024-2.408c-0.319-0.72-0.626-1.395-0.92-2.024c-0.294-0.629-0.584-1.224-0.872-1.784
	s-0.582-1.123-0.88-1.688v7.904h-1.2v-9.904h1.344c0.438,0.8,0.818,1.499,1.145,2.096c0.325,0.598,0.624,1.176,0.896,1.736
	c0.271,0.56,0.535,1.136,0.791,1.728c0.256,0.592,0.545,1.278,0.864,2.056v-7.616h1.2v9.904H883.117z"/>
<path fill="#070707" stroke="#383E47" stroke-width="0.25" stroke-miterlimit="10" d="M902.557,158.96l-0.592-2.592h-3.809
	l-0.576,2.592h-1.344c0.182-0.704,0.385-1.466,0.608-2.288c0.224-0.821,0.466-1.664,0.728-2.528c0.262-0.864,0.537-1.73,0.824-2.6
	c0.288-0.869,0.592-1.698,0.912-2.488h1.633c0.309,0.79,0.604,1.619,0.887,2.488c0.283,0.87,0.55,1.736,0.801,2.6
	c0.25,0.864,0.488,1.707,0.712,2.528c0.224,0.822,0.427,1.584,0.608,2.288H902.557z M900.076,150.208
	c-0.245,0.672-0.512,1.451-0.799,2.336c-0.289,0.886-0.561,1.797-0.816,2.736h3.199c-0.245-0.96-0.509-1.885-0.791-2.776
	C900.586,151.613,900.322,150.848,900.076,150.208z"/>
<path fill="#070707" stroke="#383E47" stroke-width="0.25" stroke-miterlimit="10" d="M935.493,158.032
	c0.672,0,1.185-0.128,1.536-0.384s0.527-0.64,0.527-1.152c0-0.31-0.063-0.573-0.191-0.792c-0.129-0.219-0.299-0.411-0.512-0.576
	c-0.214-0.165-0.454-0.309-0.721-0.432c-0.267-0.123-0.539-0.237-0.816-0.344c-0.319-0.128-0.626-0.272-0.92-0.432
	c-0.293-0.16-0.555-0.347-0.783-0.56c-0.23-0.213-0.411-0.464-0.545-0.752c-0.133-0.288-0.199-0.629-0.199-1.024
	c0-0.864,0.271-1.539,0.816-2.024c0.543-0.485,1.301-0.728,2.271-0.728c0.267,0,0.53,0.019,0.792,0.056
	c0.261,0.037,0.504,0.083,0.728,0.136c0.225,0.054,0.424,0.118,0.601,0.192c0.176,0.075,0.317,0.149,0.424,0.224l-0.416,1.104
	c-0.214-0.128-0.507-0.256-0.88-0.384c-0.373-0.128-0.789-0.192-1.248-0.192c-0.48,0-0.896,0.12-1.248,0.36
	c-0.352,0.24-0.527,0.6-0.527,1.08c0,0.277,0.05,0.512,0.151,0.704c0.101,0.192,0.24,0.36,0.416,0.504
	c0.176,0.144,0.382,0.275,0.616,0.392c0.234,0.118,0.49,0.235,0.768,0.352c0.405,0.171,0.776,0.342,1.112,0.512
	s0.624,0.374,0.864,0.608c0.24,0.235,0.426,0.512,0.56,0.832s0.2,0.709,0.2,1.168c0,0.864-0.291,1.528-0.872,1.992
	c-0.581,0.464-1.416,0.696-2.504,0.696c-0.353,0-0.683-0.024-0.992-0.072c-0.31-0.048-0.584-0.11-0.823-0.184
	c-0.24-0.075-0.451-0.149-0.633-0.224s-0.32-0.144-0.416-0.208l0.4-1.088c0.213,0.117,0.527,0.253,0.943,0.408
	C934.389,157.955,934.896,158.032,935.493,158.032z"/>
<path fill="#070707" stroke="#383E47" stroke-width="0.25" stroke-miterlimit="10" d="M952.354,158.96v-9.904h5.551v1.12h-4.239
	v3.04h3.712v1.12h-3.712v3.504h4.592v1.12H952.354z"/>
<path fill="#070707" stroke="#383E47" stroke-width="0.25" stroke-miterlimit="10" d="M977.591,152.08
	c0,0.608-0.16,1.144-0.479,1.608c-0.32,0.464-0.752,0.824-1.297,1.08c0.16,0.256,0.339,0.547,0.536,0.872s0.397,0.672,0.601,1.04
	c0.202,0.368,0.402,0.747,0.6,1.136c0.197,0.39,0.381,0.771,0.553,1.144h-1.408c-0.32-0.768-0.67-1.504-1.049-2.208
	s-0.744-1.274-1.096-1.712c-0.064,0.011-0.157,0.016-0.279,0.016c-0.123,0-0.206,0-0.248,0h-1.121v3.904h-1.328v-9.76
	c0.16-0.043,0.345-0.08,0.553-0.112c0.208-0.032,0.421-0.056,0.64-0.072c0.219-0.016,0.435-0.029,0.648-0.04
	c0.213-0.011,0.405-0.016,0.575-0.016c1.195,0,2.094,0.262,2.697,0.784C977.289,150.267,977.591,151.045,977.591,152.08z
	 M974.104,150.096c-0.246,0-0.483,0.002-0.713,0.008s-0.392,0.019-0.488,0.04v3.824h0.849c0.384,0,0.728-0.026,1.032-0.08
	c0.304-0.054,0.564-0.152,0.783-0.296s0.387-0.341,0.504-0.592s0.176-0.579,0.176-0.984c0-0.384-0.059-0.699-0.176-0.944
	c-0.117-0.245-0.271-0.44-0.463-0.584c-0.192-0.144-0.42-0.245-0.681-0.304S974.391,150.096,974.104,150.096z"/>
<path fill="#070707" stroke="#383E47" stroke-width="0.25" stroke-miterlimit="10" d="M997.492,149.056
	c-0.522,0.778-1.097,1.552-1.72,2.32c-0.625,0.768-1.299,1.536-2.024,2.304c0.341,0.288,0.704,0.624,1.088,1.008
	s0.761,0.803,1.128,1.256c0.368,0.454,0.715,0.936,1.041,1.448c0.324,0.512,0.6,1.035,0.823,1.568h-1.487
	c-0.268-0.491-0.555-0.971-0.865-1.44c-0.309-0.469-0.637-0.907-0.983-1.312s-0.704-0.776-1.071-1.112
	c-0.369-0.336-0.739-0.627-1.113-0.872v4.736h-1.312v-9.904h1.312v4.416c0.693-0.715,1.357-1.461,1.992-2.24
	c0.635-0.778,1.192-1.504,1.672-2.176H997.492z"/>
<path fill="#070707" stroke="#383E47" stroke-width="0.25" stroke-miterlimit="10" d="M1011.061,158.96v-9.904h5.552v1.12h-4.24
	v3.04h3.713v1.12h-3.713v3.504h4.592v1.12H1011.061z"/>
<path fill="#070707" stroke="#383E47" stroke-width="0.25" stroke-miterlimit="10" d="M1036.662,150.08
	c-0.342,0.469-0.723,1.027-1.145,1.672c-0.422,0.646-0.852,1.32-1.289,2.024s-0.861,1.411-1.271,2.12s-0.77,1.357-1.08,1.944h4.912
	v1.12h-6.416v-0.864c0.33-0.672,0.695-1.363,1.096-2.072c0.4-0.709,0.809-1.405,1.225-2.088s0.832-1.344,1.248-1.984
	c0.416-0.64,0.816-1.232,1.199-1.776h-4.527v-1.12h6.049V150.08z"/>
<rect x="336" y="-282" fill="none" width="340" height="66"/>
<text transform="matrix(1 0 0 1 336 -270.9121)"><tspan x="0" y="0" font-family="'UbuntuMono-Regular'" font-size="16">911825141</tspan><tspan x="0" y="19.2" font-family="'UbuntuMono-Regular'" font-size="16">1951811526</tspan></text>
<rect id="_x3C_Slice_x3E__2_" x="-220" y="-249" fill="none" width="1074" height="696"/>
<line fill="none" stroke="#383E47" stroke-width="2" stroke-linecap="round" stroke-linejoin="round" stroke-miterlimit="10" x1="977.695" y1="-30.146" x2="978.196" y2="-5"/>
<line fill="none" stroke="#383E47" stroke-width="2" stroke-linecap="round" stroke-linejoin="round" stroke-miterlimit="10" x1="887" y1="137" x2="912" y2="112"/>
<line fill="none" stroke="#383E47" stroke-width="2" stroke-linecap="round" stroke-linejoin="round" stroke-miterlimit="10" x1="899.5" y1="124.5" x2="912" y2="137"/>
<polygon fill="#FFFFFF" stroke="#383E47" stroke-width="3" stroke-linecap="round" stroke-linejoin="round" stroke-miterlimit="10" points="
	252.5,94.5 240.804,94.5 238.618,94.5 227.5,94.5 227.5,69.5 252.5,69.5 252.5,80.164 252.5,81.296 "/>
<polygon fill="#FFFFFF" stroke="#383E47" stroke-width="3" stroke-linecap="round" stroke-linejoin="round" stroke-miterlimit="10" points="
	333.5,94.5 308.5,94.5 308.5,69.5 321.244,69.5 333.5,69.5 "/>
<polygon fill="#FFFFFF" stroke="#383E47" stroke-width="3" stroke-linecap="round" stroke-linejoin="round" stroke-miterlimit="10" points="
	147.141,94.5 159.309,70.056 172.451,94.5 "/>
<polygon fill="#FFFFFF" stroke="#383E47" stroke-width="3" stroke-linecap="round" stroke-linejoin="round" stroke-miterlimit="10" points="
	187.853,94.5 200.021,70.056 213.163,94.5 "/>
<polygon fill="#FFFFFF" stroke="#383E47" stroke-width="3" stroke-linecap="round" stroke-linejoin="round" stroke-miterlimit="10" points="
	268.73,69.5 280.898,93.944 294.04,69.5 "/>
<polygon fill="#FFFFFF" stroke="#383E47" stroke-width="3" stroke-linecap="round" stroke-linejoin="round" stroke-miterlimit="10" points="
	349.607,94.5 361.775,70.056 374.918,94.5 "/>
<circle fill="#383E47" cx="235.472" cy="76.37" r="2.364"/>
<circle fill="#383E47" cx="159.796" cy="63.63" r="2.364"/>
<line fill="#FFFFFF" stroke="#383E47" stroke-width="3" stroke-linecap="round" stroke-linejoin="round" stroke-miterlimit="10" x1="309.466" y1="71.121" x2="332.688" y2="93.28"/>
<line fill="none" stroke="#383E47" stroke-width="3" stroke-linecap="round" stroke-linejoin="round" stroke-miterlimit="10" x1="194" y1="83.5" x2="207" y2="83.5"/>
<line fill="none" stroke="#383E47" stroke-width="3" stroke-linecap="round" stroke-linejoin="round" stroke-miterlimit="10" x1="355" y1="83.5" x2="369" y2="83.5"/>
<path fill="#070707" stroke="#383E47" stroke-width="0.25" stroke-miterlimit="10" d="M786.94-126.507l-0.592-2.592h-3.808
	l-0.576,2.592h-1.344c0.181-0.704,0.383-1.466,0.607-2.288c0.225-0.821,0.467-1.664,0.729-2.528c0.261-0.864,0.535-1.73,0.824-2.6
	c0.287-0.869,0.592-1.698,0.911-2.488h1.632c0.31,0.79,0.605,1.619,0.889,2.488c0.282,0.87,0.549,1.736,0.8,2.6
	c0.251,0.864,0.487,1.707,0.712,2.528c0.225,0.822,0.426,1.584,0.607,2.288H786.94z M784.461-135.259
	c-0.246,0.672-0.512,1.451-0.801,2.336c-0.287,0.886-0.56,1.797-0.815,2.736h3.2c-0.246-0.96-0.51-1.885-0.793-2.776
	C784.97-133.854,784.706-134.619,784.461-135.259z"/>
<path fill="#070707" stroke="#383E47" stroke-width="0.25" stroke-miterlimit="10" d="M805.945-133.387
	c0,0.608-0.16,1.144-0.479,1.608c-0.32,0.464-0.752,0.824-1.296,1.08c0.159,0.256,0.338,0.547,0.535,0.872s0.397,0.672,0.601,1.04
	c0.202,0.368,0.402,0.747,0.6,1.136c0.197,0.39,0.382,0.771,0.553,1.144h-1.408c-0.32-0.768-0.67-1.504-1.048-2.208
	c-0.379-0.704-0.744-1.274-1.097-1.712c-0.063,0.011-0.157,0.016-0.279,0.016c-0.123,0-0.206,0-0.248,0h-1.12v3.904h-1.328v-9.76
	c0.16-0.043,0.344-0.08,0.552-0.112c0.208-0.032,0.421-0.056,0.64-0.072c0.219-0.016,0.435-0.029,0.648-0.04
	c0.213-0.011,0.405-0.016,0.576-0.016c1.194,0,2.093,0.262,2.696,0.784C805.645-135.201,805.945-134.422,805.945-133.387z
	 M802.458-135.371c-0.246,0-0.483,0.002-0.713,0.008s-0.392,0.019-0.487,0.04v3.824h0.848c0.384,0,0.729-0.026,1.032-0.08
	c0.304-0.054,0.565-0.152,0.784-0.296c0.218-0.144,0.386-0.341,0.504-0.592c0.117-0.25,0.176-0.579,0.176-0.984
	c0-0.384-0.059-0.699-0.176-0.944c-0.118-0.245-0.272-0.44-0.464-0.584c-0.192-0.144-0.419-0.245-0.681-0.304
	C803.021-135.342,802.745-135.371,802.458-135.371z"/>
<path fill="#070707" stroke="#383E47" stroke-width="0.25" stroke-miterlimit="10" d="M821.331-126.507v-3.68
	c-0.65-1.066-1.239-2.106-1.769-3.12c-0.527-1.014-0.988-2.048-1.383-3.104h1.472c0.31,0.896,0.664,1.752,1.063,2.568
	c0.4,0.816,0.83,1.656,1.289,2.52c0.49-0.907,0.924-1.768,1.303-2.584s0.723-1.65,1.033-2.504h1.439
	c-0.406,1.045-0.869,2.064-1.393,3.056c-0.522,0.992-1.104,2.038-1.744,3.136v3.712H821.331z"/>
<path fill="#070707" stroke="#383E47" stroke-width="0.25" stroke-miterlimit="10" d="M769.652-126.507v-3.68
	c-0.65-1.066-1.24-2.106-1.768-3.12c-0.528-1.014-0.99-2.048-1.385-3.104h1.473c0.309,0.896,0.664,1.752,1.064,2.568
	c0.399,0.816,0.828,1.656,1.287,2.52c0.49-0.907,0.926-1.768,1.305-2.584c0.378-0.816,0.723-1.65,1.031-2.504h1.44
	c-0.405,1.045-0.87,2.064-1.392,3.056c-0.523,0.992-1.104,2.038-1.744,3.136v3.712H769.652z"/>
<path fill="#070707" stroke="#383E47" stroke-width="0.25" stroke-miterlimit="10" d="M842.508-126.507
	c-0.362-0.885-0.703-1.688-1.023-2.408c-0.32-0.72-0.627-1.395-0.92-2.024c-0.293-0.629-0.584-1.224-0.872-1.784
	s-0.581-1.123-0.88-1.688v7.904h-1.2v-9.904h1.345c0.437,0.8,0.818,1.499,1.144,2.096c0.325,0.598,0.624,1.176,0.896,1.736
	c0.272,0.56,0.536,1.136,0.793,1.728c0.256,0.592,0.543,1.278,0.863,2.056v-7.616h1.2v9.904H842.508z"/>
<path fill="#070707" stroke="#383E47" stroke-width="0.25" stroke-miterlimit="10" d="M861.948-126.507l-0.592-2.592h-3.808
	l-0.576,2.592h-1.344c0.181-0.704,0.383-1.466,0.607-2.288c0.225-0.821,0.467-1.664,0.729-2.528c0.261-0.864,0.535-1.73,0.824-2.6
	c0.287-0.869,0.592-1.698,0.911-2.488h1.632c0.31,0.79,0.605,1.619,0.889,2.488c0.282,0.87,0.549,1.736,0.8,2.6
	c0.251,0.864,0.487,1.707,0.712,2.528c0.225,0.822,0.426,1.584,0.607,2.288H861.948z M859.469-135.259
	c-0.246,0.672-0.512,1.451-0.801,2.336c-0.287,0.886-0.56,1.797-0.815,2.736h3.2c-0.246-0.96-0.51-1.885-0.793-2.776
	C859.978-133.854,859.714-134.619,859.469-135.259z"/>
<path fill="#070707" stroke="#383E47" stroke-width="0.25" stroke-miterlimit="10" d="M894.885-127.436
	c0.672,0,1.184-0.128,1.535-0.384c0.353-0.256,0.529-0.64,0.529-1.152c0-0.31-0.064-0.573-0.192-0.792s-0.299-0.411-0.513-0.576
	c-0.213-0.165-0.453-0.309-0.72-0.432c-0.267-0.123-0.538-0.237-0.815-0.344c-0.32-0.128-0.627-0.272-0.92-0.432
	c-0.294-0.16-0.555-0.347-0.785-0.56c-0.229-0.213-0.41-0.464-0.543-0.752c-0.134-0.288-0.2-0.629-0.2-1.024
	c0-0.864,0.272-1.539,0.815-2.024c0.545-0.485,1.302-0.728,2.272-0.728c0.267,0,0.53,0.019,0.792,0.056
	c0.262,0.037,0.504,0.083,0.729,0.136c0.224,0.054,0.424,0.118,0.6,0.192c0.176,0.075,0.316,0.149,0.424,0.224l-0.416,1.104
	c-0.213-0.128-0.507-0.256-0.88-0.384c-0.374-0.128-0.79-0.192-1.248-0.192c-0.479,0-0.896,0.12-1.248,0.36
	c-0.353,0.24-0.528,0.6-0.528,1.08c0,0.277,0.051,0.512,0.152,0.704c0.102,0.192,0.24,0.36,0.416,0.504
	c0.176,0.144,0.381,0.275,0.616,0.392c0.234,0.118,0.49,0.235,0.768,0.352c0.405,0.171,0.776,0.342,1.112,0.512
	s0.624,0.374,0.863,0.608c0.24,0.235,0.428,0.512,0.561,0.832s0.2,0.709,0.2,1.168c0,0.864-0.291,1.528-0.872,1.992
	c-0.582,0.464-1.416,0.696-2.504,0.696c-0.352,0-0.684-0.024-0.992-0.072c-0.31-0.048-0.584-0.11-0.824-0.184
	c-0.24-0.075-0.451-0.149-0.632-0.224c-0.182-0.075-0.319-0.144-0.416-0.208l0.399-1.088c0.214,0.117,0.529,0.253,0.945,0.408
	C893.781-127.513,894.287-127.436,894.885-127.436z"/>
<path fill="#070707" stroke="#383E47" stroke-width="0.25" stroke-miterlimit="10" d="M911.744-126.507v-9.904h5.553v1.12h-4.24
	v3.04h3.712v1.12h-3.712v3.504h4.592v1.12H911.744z"/>
<path fill="#070707" stroke="#383E47" stroke-width="0.25" stroke-miterlimit="10" d="M936.982-133.387
	c0,0.608-0.16,1.144-0.479,1.608c-0.32,0.464-0.752,0.824-1.297,1.08c0.16,0.256,0.339,0.547,0.536,0.872s0.397,0.672,0.601,1.04
	c0.202,0.368,0.402,0.747,0.6,1.136c0.197,0.39,0.381,0.771,0.553,1.144h-1.408c-0.32-0.768-0.67-1.504-1.049-2.208
	s-0.744-1.274-1.096-1.712c-0.064,0.011-0.157,0.016-0.279,0.016c-0.123,0-0.206,0-0.248,0h-1.121v3.904h-1.328v-9.76
	c0.16-0.043,0.345-0.08,0.553-0.112c0.208-0.032,0.421-0.056,0.64-0.072c0.219-0.016,0.435-0.029,0.648-0.04
	c0.213-0.011,0.405-0.016,0.575-0.016c1.195,0,2.094,0.262,2.697,0.784C936.681-135.201,936.982-134.422,936.982-133.387z
	 M933.495-135.371c-0.246,0-0.483,0.002-0.713,0.008s-0.392,0.019-0.488,0.04v3.824h0.849c0.384,0,0.728-0.026,1.032-0.08
	c0.304-0.054,0.564-0.152,0.783-0.296s0.387-0.341,0.504-0.592s0.176-0.579,0.176-0.984c0-0.384-0.059-0.699-0.176-0.944
	c-0.117-0.245-0.271-0.44-0.463-0.584c-0.192-0.144-0.42-0.245-0.681-0.304S933.782-135.371,933.495-135.371z"/>
<path fill="#070707" stroke="#383E47" stroke-width="0.25" stroke-miterlimit="10" d="M956.884-136.411
	c-0.522,0.778-1.097,1.552-1.72,2.32c-0.625,0.768-1.299,1.536-2.024,2.304c0.341,0.288,0.704,0.624,1.088,1.008
	s0.761,0.803,1.128,1.256c0.368,0.454,0.715,0.936,1.041,1.448c0.324,0.512,0.6,1.035,0.823,1.568h-1.487
	c-0.268-0.491-0.555-0.971-0.865-1.44c-0.309-0.469-0.637-0.907-0.983-1.312s-0.704-0.776-1.071-1.112
	c-0.369-0.336-0.739-0.627-1.113-0.872v4.736h-1.312v-9.904h1.312v4.416c0.693-0.715,1.357-1.461,1.992-2.24
	c0.635-0.778,1.192-1.504,1.672-2.176H956.884z"/>
<path fill="#070707" stroke="#383E47" stroke-width="0.25" stroke-miterlimit="10" d="M970.452-126.507v-9.904h5.552v1.12h-4.24
	v3.04h3.713v1.12h-3.713v3.504h4.592v1.12H970.452z"/>
<path fill="#070707" stroke="#383E47" stroke-width="0.25" stroke-miterlimit="10" d="M996.054-135.387
	c-0.342,0.469-0.723,1.027-1.145,1.672c-0.422,0.646-0.852,1.32-1.289,2.024s-0.861,1.411-1.271,2.12s-0.77,1.357-1.08,1.944h4.912
	v1.12h-6.416v-0.864c0.33-0.672,0.695-1.363,1.096-2.072c0.4-0.709,0.809-1.405,1.225-2.088s0.832-1.344,1.248-1.984
	c0.416-0.64,0.816-1.232,1.199-1.776h-4.527v-1.12h6.049V-135.387z"/>
<line fill="none" stroke="#383E47" stroke-width="3" stroke-linecap="round" stroke-linejoin="round" stroke-miterlimit="10" x1="228.852" y1="93.492" x2="251.691" y2="70.652"/>
<line fill="none" stroke="#383E47" stroke-width="3" stroke-linecap="round" stroke-linejoin="round" stroke-miterlimit="10" x1="240.598" y1="82.588" x2="251.705" y2="93.906"/>
<rect id="_x3C_Slice_x3E_" x="-200" y="-235" fill="none" width="990" height="715"/>
</svg>
